{
  "accessors": [
    {
      "bufferView": 2,
      "componentType": 5126,
      "count": 788,
      "max": [
        0.1495383083820343,
        0.3307783603668213,
        0.3353116512298584
      ],
      "min": [
        -0.27518945932388306,
        -0.33133044838905334,
        -0.33531227707862854
      ],
      "type": "VEC3"
    },
    {
      "bufferView": 2,
      "byteOffset": 9456,
      "componentType": 5126,
      "count": 788,
      "max": [
        1.0,
        0.9992021322250366,
        0.9999904632568359
      ],
      "min": [
        -1.0,
        -0.9989568591117859,
        -0.9999904632568359
      ],
      "type": "VEC3"
    },
    {
      "bufferView": 1,
      "componentType": 5126,
      "count": 788,
      "max": [
        1.000000238418579,
        0.5000000596046448
      ],
      "min": [
        0.0,
        0.06249987334012985
      ],
      "type": "VEC2"
    },
    {
      "bufferView": 0,
      "componentType": 5125,
      "count": 4476,
      "type": "SCALAR"
    },
    {
      "bufferView": 2,
      "byteOffset": 18912,
      "componentType": 5126,
      "count": 18399,
      "max": [
        0.16427266597747803,
        0.31604889035224915,
        0.31822165846824646
      ],
      "min": [
        -0.2373959720134735,
        -0.3176003098487854,
        -0.31878677010536194
      ],
      "type": "VEC3"
    },
    {
      "bufferView": 2,
      "byteOffset": 239700,
      "componentType": 5126,
      "count": 18399,
      "max": [
        0.9999998807907104,
        1.0,
        0.99986732006073
      ],
      "min": [
        -0.9999018907546997,
        -1.0,
        -0.99986732006073
      ],
      "type": "VEC3"
    },
    {
      "bufferView": 3,
      "componentType": 5126,
      "count": 18399,
      "max": [
        0.9999477863311768,
        0.9999672174453735,
        0.9718245267868042,
        1.0
      ],
      "min": [
        -0.9999880790710449,
        -0.9998817443847656,
        -0.9989737868309021,
        1.0
      ],
      "type": "VEC4"
    },
    {
      "bufferView": 1,
      "byteOffset": 6304,
      "componentType": 5126,
      "count": 18399,
      "max": [
        0.5379248857498169,
        0.9997495412826538
      ],
      "min": [
        0.0005254370043985546,
        0.0003056934801861644
      ],
      "type": "VEC2"
    },
    {
      "bufferView": 1,
      "byteOffset": 153496,
      "componentType": 5126,
      "count": 18399,
      "max": [
        0.5379248857498169,
        0.9997495412826538
      ],
      "min": [
        0.0005254370043985546,
        0.0003056934801861644
      ],
      "type": "VEC2"
    },
    {
      "bufferView": 1,
      "byteOffset": 300688,
      "componentType": 5126,
      "count": 18399,
      "max": [
        0.5379248857498169,
        0.9997495412826538
      ],
      "min": [
        0.0005254370043985546,
        0.0003056934801861644
      ],
      "type": "VEC2"
    },
    {
      "bufferView": 1,
      "byteOffset": 447880,
      "componentType": 5126,
      "count": 18399,
      "max": [
        0.5379248857498169,
        0.9997495412826538
      ],
      "min": [
        0.0005254370043985546,
        0.0003056934801861644
      ],
      "type": "VEC2"
    },
    {
      "bufferView": 0,
      "byteOffset": 17904,
      "componentType": 5125,
      "count": 98208,
      "type": "SCALAR"
    },
    {
      "bufferView": 2,
      "byteOffset": 460488,
      "componentType": 5126,
      "count": 6970,
      "max": [
        0.20457738637924194,
        0.09348656982183456,
        0.2523934245109558
      ],
      "min": [
        -0.20457738637924194,
        -0.07265785336494446,
        -0.2309207022190094
      ],
      "type": "VEC3"
    },
    {
      "bufferView": 2,
      "byteOffset": 544128,
      "componentType": 5126,
      "count": 6970,
      "max": [
        0.9999940395355225,
        0.9999995231628418,
        0.9992151260375977
      ],
      "min": [
        -0.9999940395355225,
        -0.9999967813491821,
        -0.999933123588562
      ],
      "type": "VEC3"
    },
    {
      "bufferView": 3,
      "byteOffset": 294384,
      "componentType": 5126,
      "count": 6970,
      "max": [
        0.9999169111251831,
        0.9994847774505615,
        0.9999956488609314,
        1.0
      ],
      "min": [
        -0.9999169111251831,
        -0.9996870160102844,
        -0.9999856948852539,
        -1.0
      ],
      "type": "VEC4"
    },
    {
      "bufferView": 1,
      "byteOffset": 595072,
      "componentType": 5126,
      "count": 6970,
      "max": [
        0.7638274431228638,
        0.9973923563957214
      ],
      "min": [
        0.005015247967094183,
        0.15235000848770142
      ],
      "type": "VEC2"
    },
    {
      "bufferView": 1,
      "byteOffset": 650832,
      "componentType": 5126,
      "count": 6970,
      "max": [
        0.7638274431228638,
        0.9973923563957214
      ],
      "min": [
        0.005015247967094183,
        0.15235000848770142
      ],
      "type": "VEC2"
    },
    {
      "bufferView": 1,
      "byteOffset": 706592,
      "componentType": 5126,
      "count": 6970,
      "max": [
        0.7638274431228638,
        0.9973923563957214
      ],
      "min": [
        0.005015247967094183,
        0.15235000848770142
      ],
      "type": "VEC2"
    },
    {
      "bufferView": 1,
      "byteOffset": 762352,
      "componentType": 5126,
      "count": 6970,
      "max": [
        0.7638274431228638,
        0.9973923563957214
      ],
      "min": [
        0.005015247967094183,
        0.15235000848770142
      ],
      "type": "VEC2"
    },
    {
      "bufferView": 0,
      "byteOffset": 410736,
      "componentType": 5125,
      "count": 35496,
      "type": "SCALAR"
    },
    {
      "bufferView": 2,
      "byteOffset": 627768,
      "componentType": 5126,
      "count": 3792,
      "max": [
        0.09659536182880402,
        0.03517286479473114,
        0.18069174885749817
      ],
      "min": [
        -0.10149388760328293,
        -0.07586710900068283,
        -0.1701430082321167
      ],
      "type": "VEC3"
    },
    {
      "bufferView": 2,
      "byteOffset": 673272,
      "componentType": 5126,
      "count": 3792,
      "max": [
        0.9998455047607422,
        0.9999384880065918,
        0.9991697072982788
      ],
      "min": [
        -0.9995861053466797,
        -0.9999858140945435,
        -0.9992319345474243
      ],
      "type": "VEC3"
    },
    {
      "bufferView": 3,
      "byteOffset": 405904,
      "componentType": 5126,
      "count": 3792,
      "max": [
        0.9848487973213196,
        0.9993142485618591,
        0.9999170303344727,
        1.0
      ],
      "min": [
        -1.0,
        -0.9991075992584229,
        -0.9964052438735962,
        1.0
      ],
      "type": "VEC4"
    },
    {
      "bufferView": 1,
      "byteOffset": 818112,
      "componentType": 5126,
      "count": 3792,
      "max": [
        0.9993883967399597,
        0.8798532485961914
      ],
      "min": [
        0.003967114724218845,
        0.0031535476446151733
      ],
      "type": "VEC2"
    },
    {
      "bufferView": 1,
      "byteOffset": 848448,
      "componentType": 5126,
      "count": 3792,
      "max": [
        0.9993883967399597,
        0.8798532485961914
      ],
      "min": [
        0.003967114724218845,
        0.0031535476446151733
      ],
      "type": "VEC2"
    },
    {
      "bufferView": 1,
      "byteOffset": 878784,
      "componentType": 5126,
      "count": 3792,
      "max": [
        0.9993883967399597,
        0.8798532485961914
      ],
      "min": [
        0.003967114724218845,
        0.0031535476446151733
      ],
      "type": "VEC2"
    },
    {
      "bufferView": 1,
      "byteOffset": 909120,
      "componentType": 5126,
      "count": 3792,
      "max": [
        0.9993883967399597,
        0.8798532485961914
      ],
      "min": [
        0.003967114724218845,
        0.0031535476446151733
      ],
      "type": "VEC2"
    },
    {
      "bufferView": 0,
      "byteOffset": 552720,
      "componentType": 5125,
      "count": 18288,
      "type": "SCALAR"
    },
    {
      "bufferView": 2,
      "byteOffset": 718776,
      "componentType": 5126,
      "count": 480,
      "max": [
        0.36670321226119995,
        0.17727097868919373,
        0.3667032718658447
      ],
      "min": [
        -0.3667032718658447,
        -0.0649285838007927,
        -0.3667030334472656
      ],
      "type": "VEC3"
    },
    {
      "bufferView": 2,
      "byteOffset": 724536,
      "componentType": 5126,
      "count": 480,
      "max": [
        0.9995267391204834,
        1.0,
        0.9995267391204834
      ],
      "min": [
        -0.9995267391204834,
        -1.0,
        -0.9995267391204834
      ],
      "type": "VEC3"
    },
    {
      "bufferView": 1,
      "byteOffset": 939456,
      "componentType": 5126,
      "count": 480,
      "max": [
        0.7353077530860901,
        0.9998997449874878
      ],
      "min": [
        0.00010025781375588849,
        0.00010025781375588849
      ],
      "type": "VEC2"
    },
    {
      "bufferView": 0,
      "byteOffset": 625872,
      "componentType": 5125,
      "count": 2676,
      "type": "SCALAR"
    }
  ],
  "asset": {
    "extras": {
      "author": "Ivan.Badanjak (https://sketchfab.com/Ivan.Badanjak)",
      "license": "CC-BY-4.0 (http://creativecommons.org/licenses/by/4.0/)",
      "source": "https://sketchfab.com/3d-models/egg-chair-03e4fe43f02f49bb933dc02f7ed8d067",
      "title": "Egg Chair"
    },
    "generator": "Sketchfab-12.67.0",
    "version": "2.0"
  },
  "bufferViews": [
    {
      "buffer": 0,
      "byteLength": 636576,
      "name": "floatBufferViews",
      "target": 34963
    },
    {
      "buffer": 0,
      "byteLength": 943296,
      "byteOffset": 636576,
      "byteStride": 8,
      "name": "floatBufferViews",
      "target": 34962
    },
    {
      "buffer": 0,
      "byteLength": 730296,
      "byteOffset": 1579872,
      "byteStride": 12,
      "name": "floatBufferViews",
      "target": 34962
    },
    {
      "buffer": 0,
      "byteLength": 466576,
      "byteOffset": 2310168,
      "byteStride": 16,
      "name": "floatBufferViews",
      "target": 34962
    }
  ],
  "buffers": [
    {
      "byteLength": 2776744,
      "uri": "eggChair.bin"
    }
  ],
  "images": [
    {
      "uri": "texturesEggChair/Cashmir_metallicRoughness.png"
    },
    {
      "uri": "texturesEggChair/Cashmir_normal.png"
    }
  ],
  "materials": [
    {
      "doubleSided": true,
      "name": "White_Egg",
      "pbrMetallicRoughness": {
        "metallicFactor": 0.0,
        "roughnessFactor": 0.0
      }
    },
    {
      "doubleSided": true,
      "name": "Cashmir",
      "normalTexture": {
        "index": 1
      },
      "pbrMetallicRoughness": {
        "baseColorFactor": [
          0.3603936447691507,
          0.03906111016244188,
          0.03906111016244188,
          1.0
        ],
        "metallicFactor": 0.0,
        "metallicRoughnessTexture": {
          "index": 0
        }
      }
    }
  ],
  "meshes": [
    {
      "name": "Object_0",
      "primitives": [
        {
          "attributes": {
            "NORMAL": 1,
            "POSITION": 0,
            "TEXCOORD_0": 2
          },
          "indices": 3,
          "material": 0,
          "mode": 4
        }
      ]
    },
    {
      "name": "Object_1",
      "primitives": [
        {
          "attributes": {
            "NORMAL": 5,
            "POSITION": 4,
            "TANGENT": 6,
            "TEXCOORD_0": 7,
            "TEXCOORD_1": 8,
            "TEXCOORD_2": 9,
            "TEXCOORD_3": 10
          },
          "indices": 11,
          "material": 1,
          "mode": 4
        }
      ]
    },
    {
      "name": "Object_2",
      "primitives": [
        {
          "attributes": {
            "NORMAL": 13,
            "POSITION": 12,
            "TANGENT": 14,
            "TEXCOORD_0": 15,
            "TEXCOORD_1": 16,
            "TEXCOORD_2": 17,
            "TEXCOORD_3": 18
          },
          "indices": 19,
          "material": 1,
          "mode": 4
        }
      ]
    },
    {
      "name": "Object_3",
      "primitives": [
        {
          "attributes": {
            "NORMAL": 21,
            "POSITION": 20,
            "TANGENT": 22,
            "TEXCOORD_0": 23,
            "TEXCOORD_1": 24,
            "TEXCOORD_2": 25,
            "TEXCOORD_3": 26
          },
          "indices": 27,
          "material": 1,
          "mode": 4
        }
      ]
    },
    {
      "name": "Object_4",
      "primitives": [
        {
          "attributes": {
            "NORMAL": 29,
            "POSITION": 28,
            "TEXCOORD_0": 30
          },
          "indices": 31,
          "material": 0,
          "mode": 4
        }
      ]
    }
  ],
  "nodes": [
    {
      "children": [
        1
      ],
      "matrix": [
        1.0,
        0.0,
        0.0,
        0.0,
        0.0,
        2.220446049250313e-16,
        -1.0,
        0.0,
        0.0,
        1.0,
        2.220446049250313e-16,
        0.0,
        0.0,
        0.0,
        0.0,
        1.0
      ],
      "name": "Sketchfab_model"
    },
    {
      "children": [
        2
      ],
      "name": "root"
    },
    {
      "children": [
        3,
        5,
        7,
        9,
        11
      ],
      "matrix": [
        1.0,
        0.0,
        0.0,
        0.0,
        0.0,
        2.220446049250313e-16,
        1.0,
        0.0,
        0.0,
        -1.0,
        2.220446049250313e-16,
        0.0,
        0.0,
        0.0,
        0.0,
        1.0
      ],
      "name": "GLTF_SceneRootNode"
    },
    {
      "children": [
        4
      ],
      "matrix": [
        0.9501437053236277,
        0.29630642984146394,
        -0.09710529783947361,
        0.0,
        -0.29477099155739883,
        0.9550929272246788,
        0.030125784664673784,
        0.0,
        0.10167104686268935,
        2.6254330827424344e-10,
        0.9948180729308475,
        0.0,
        -0.20341672003269196,
        0.004179231822490692,
        -0.014528236351907253,
        1.0
      ],
      "name": "Sphere.002_2"
    },
    {
      "mesh": 0,
      "name": "Object_4"
    },
    {
      "children": [
        6
      ],
      "matrix": [
        0.9501437053236277,
        0.29630642984146394,
        -0.09710529783947361,
        0.0,
        -0.29477099155739883,
        0.9550929272246788,
        0.030125784664673784,
        0.0,
        0.10167104686268935,
        2.6254330827424344e-10,
        0.9948180729308475,
        0.0,
        -0.22052665054798126,
        -0.0003476724377833307,
        -0.012495781295001507,
        1.0
      ],
      "name": "Sphere.003_3"
    },
    {
      "mesh": 1,
      "name": "Object_6"
    },
    {
      "children": [
        8
      ],
      "matrix": [
        0.0173496420115693,
        -0.010523081539184576,
        -0.9997941061423548,
        0.0,
        0.8768199119653054,
        0.48071165675550354,
        0.010156034685498805,
        0.0,
        0.4805058083969687,
        -0.8768155836972211,
        0.017567022584287995,
        0.0,
        -0.29360994696617126,
        -0.03407686576247215,
        -0.01561235822737217,
        1.0
      ],
      "name": "Cube.009_4"
    },
    {
      "mesh": 2,
      "name": "Object_8"
    },
    {
      "children": [
        10
      ],
      "matrix": [
        0.9501437053236277,
        0.29630642984146394,
        -0.09710529783947361,
        0.0,
        -0.29477099155739883,
        0.9550929272246788,
        0.030125784664673784,
        0.0,
        0.10167104686268935,
        2.6254330827424344e-10,
        0.9948180729308475,
        0.0,
        -0.10381260514259338,
        -0.2148272842168808,
        -0.025019466876983643,
        1.0
      ],
      "name": "Cube_5"
    },
    {
      "mesh": 3,
      "name": "Object_10"
    },
    {
      "children": [
        12
      ],
      "matrix": [
        0.5545042291125728,
        0.0,
        -0.05667069178989558,
        0.0,
        0.0,
        0.3396191895008087,
        0.0,
        0.0,
        0.05667069178989558,
        0.0,
        0.5545042291125728,
        0.0,
        -0.15142515301704407,
        -0.36200809478759766,
        -0.017365869134664536,
        1.0
      ],
      "name": "Cylinder_6"
    },
    {
      "mesh": 4,
      "name": "Object_12"
    }
  ],
  "samplers": [
    {
      "magFilter": 9729,
      "minFilter": 9987,
      "wrapS": 10497,
      "wrapT": 10497
    }
  ],
  "scene": 0,
  "scenes": [
    {
      "name": "Sketchfab_Scene",
      "nodes": [
        0
      ]
    }
  ],
  "textures": [
    {
      "sampler": 0,
      "source": 0
    },
    {
      "sampler": 0,
      "source": 1
    }
  ]
}
